# AST/ASF file generated using VICON BodyLanguage
# -----------------------------------------------
:version 1.10
:name VICON
:units
  mass 1.0
  length 0.45
  angle deg
:documentation
   .ast/.asf automatically generated from VICON data using
   VICON BodyBuilder and BodyLanguage model FoxedUp or BRILLIANT.MOD
:root
   order TX TY TZ RX RY RZ
   axis XYZ
   position 0 0 0  
   orientation 0 0 0 
:bonedata
  begin
     id 1 
     name lhipjoint
     direction 0.440178 -0.822639 0.359871 
     length 2.53113 
     axis 0 0 0  XYZ
  end
  begin
     id 2 
     name lfemur
     direction 0.34202 -0.939693 0  
     length 7.88132  
     axis 0 0 20  XYZ
    dof rx ry rz
    limits (-160.0 20.0)
           (-70.0 70.0)
           (-60.0 70.0)
  end
  begin
     id 3 
     name ltibia
     direction 0.34202 -0.939693 0   
     length 8.43783   
     axis 0 0 20   XYZ
    dof rx
    limits (-10.0 170.0)
  end
  begin
     id 4 
     name lfoot
     direction 0.0886351 -0.243523 0.965837   
     length 2.63414   
     axis -90 7.62852e-016 20   XYZ
    dof rx rz
    limits (-45.0 90.0)
           (-70.0 20.0)
  end
  begin
     id 5 
     name ltoes
     direction 1.53703e-011 -4.21717e-011 1   
     length 1.31427   
     axis -90 7.62852e-016 20   XYZ
    dof rx
    limits (-90.0 20.0)
  end
  begin
     id 6 
     name rhipjoint
     direction -0.399779 -0.839773 0.367367   
     length 2.47948  
     axis 0 0 0  XYZ 
  end
  begin
     id 7 
     name rfemur
     direction -0.34202 -0.939693 0   
     length 7.74806   
     axis 0 0 -20   XYZ
    dof rx ry rz
    limits (-160.0 20.0)
           (-70.0 70.0)
           (-70.0 60.0)
  end
  begin
     id 8 
     name rtibia
     direction -0.34202 -0.939693 0   
     length 8.74432   
     axis 0 0 -20   XYZ
    dof rx
    limits (-10.0 170.0)
 end
 begin
     id 9 
     name rfoot
     direction -0.108514 -0.298139 0.948334   
     length 2.66102  
     axis -90 -7.62852e-016 -20   XYZ
    dof rx rz
    limits (-45.0 90.0)
           (-20.0 70.0)
  end
  begin
     id 10 
     name rtoes
     direction -1.53392e-011 -4.22077e-011 1   
     length 1.31983   
     axis -90 -7.62852e-016 -20   XYZ
    dof rx
    limits (-90.0 20.0)
  end
  begin
     id 11 
     name lowerback
     direction 0.0113257 0.999866 0.0118602   
     length 2.58694   
     axis 0 0 0   XYZ
    dof rx ry rz
    limits (-20.0 45.0)
           (-30.0 30.0)
           (-30.0 30.0)
  end
  begin
     id 12 
     name upperback
     direction -0.0164747 0.995193 -0.0965375   
     length 2.52368   
     axis 0 0 0   XYZ
    dof rx ry rz
    limits (-20.0 45.0)
           (-30.0 30.0)
           (-30.0 30.0)
  end
  begin
     id 13 
     name thorax
     direction -0.0194301 0.99433 -0.104552   
     length 2.56099   
     axis 0 0 0   XYZ
    dof rx ry rz
    limits (-20.0 45.0)
           (-30.0 30.0)
           (-30.0 30.0)
  end
  begin
     id 14 
     name lowerneck
     direction 0.0148543 0.995587 -0.092657   
     length 1.71582   
     axis 0 0 0   XYZ
    dof rx ry rz
    limits (-20.0 45.0)
           (-30.0 30.0)
           (-30.0 30.0)
  end
  begin
     id 15 
     name upperneck
     direction -0.0135467 0.993656 -0.111639   
     length 1.68937   
     axis 0 0 0   XYZ
    dof rx ry rz
    limits (-20.0 45.0)
           (-30.0 30.0)
           (-30.0 30.0)
  end
  begin
     id 16
     name head
     direction -0.00615349 0.999547 -0.029448  
     length 1.7462  
     axis 0 0 0   XYZ
    dof rx ry rz
    limits (-20.0 45.0)
           (-30.0 30.0)
           (-30.0 30.0)
  end
  begin
     id 17 
     name lclavicle
     direction 0.988267 0.149885 0.0293713  
     length 4.47222  
     axis 0 0 0   XYZ
    dof ry rz
    limits (-20.0 10.0)
           (0.0 20.0)
  end
  begin
     id 18 
     name lhumerus
     direction 1 -4.48986e-011 -1.14833e-027   
     length 5.37148   
     axis 180 -30 -90   XYZ
    dof rx ry rz
    limits (-60.0 90.0)
           (-90.0 90.0)
           (-90.0 90.0)
  end
  begin
     id 19
     name lradius
     direction 0.999998 0.00170963 -0.000987055   
     length 3.94212   
     axis 180 -30 -90   XYZ
    dof rx
    limits (-10.0 170.0)
  end
  begin
     id 20
     name lwrist
     direction 0.999998 7.53149e-005 -0.00194706   
     length 1.97106   
     axis 4.65056e-015 90 90   XYZ
    dof ry
    limits (-180.0 0.0)
 end
  begin
     id 21 
     name lhand
     direction 1 -4.48973e-011 -1.31746e-026   
     length 1.17917   
     axis 8.4065e-015 90 90   XYZ
    dof rx rz
    limits (-90.0 90.0)
           (-45.0 45.0)
  end
  begin
     id 22 
     name lfingers
     direction 1 -4.49107e-011 -2.63492e-026   
     length 0.950679   
     axis 1.6813e-014 90 90   XYZ
    dof rx
    limits (0.0 90.0)
  end
  begin
     id 23
     name lthumb
     direction 0.707107 -6.35048e-011 0.707107   
     length 1.36499   
     axis -90 45 2.85299e-015   XYZ
    dof rx rz
    limits (-45.0 45.0)
           (-45.0 45.0)
  end
  begin
     id 24 
     name rclavicle
     direction -0.996699 0.0642895 -0.0495725   
     length 4.62611  
     axis 0 0 0   XYZ 
    dof ry rz
    limits (-10.0 20.0)
           (-20.0 0.0)
  end
  begin
     id 25 
     name rhumerus
     direction -1 -4.48919e-011 -2.41059e-027  
     length 5.4981   
     axis 180 30 90   XYZ
    dof rx ry rz
    limits (-90.0 60.0)
           (-90.0 90.0)
           (-90.0 90.0)
  end
  begin
     id 26 
     name rradius
     direction -0.999999 0.00118101 -0.000681858   
     length 3.48381   
     axis 180 30 90   XYZ
    dof rx
    limits (-10.0 170.0)
  end
  begin
     id 27 
     name rwrist
     direction -0.999999 0.000321823 -0.00132288   
     length 1.7419   
     axis 4.65056e-015 -90 -90   XYZ
    dof ry
    limits (-180.0 0.0)
  end
  begin
     id 28
     name rhand
     direction -1 -4.49022e-011 -1.31746e-026   
     length 1.34932   
     axis 8.4065e-015 -90 -90   XYZ
    dof rx rz
    limits (-90.0 90.0)
           (-45.0 45.0)
  end
  begin
     id 29
     name rfingers
     direction -1 -4.49178e-011 -2.63492e-026   
     length 1.08785   
     axis 1.6813e-014 -90 -90   XYZ
    dof rx
    limits (0.0 90.0)
  end
  begin
     id 30
     name rthumb
     direction -0.707107 -6.34713e-011 0.707107   
     length 1.56195   
     axis -90 -45 -2.85299e-015   XYZ
    dof rx rz
    limits (-45.0 45.0)
           (-45.0 45.0)
  end
:hierarchy
  begin
    root lhipjoint rhipjoint lowerback
    lhipjoint lfemur
    lfemur ltibia
    ltibia lfoot
    lfoot ltoes
    rhipjoint rfemur
    rfemur rtibia
    rtibia rfoot
    rfoot rtoes
    lowerback upperback
    upperback thorax
    thorax lowerneck lclavicle rclavicle
    lowerneck upperneck
    upperneck head
    lclavicle lhumerus
    lhumerus lradius
    lradius lwrist
    lwrist lhand lthumb
    lhand lfingers
    rclavicle rhumerus
    rhumerus rradius
    rradius rwrist
    rwrist rhand rthumb
    rhand rfingers
  end

#!OML:ASF X:\für Bonn\!DataBase\2005_08_10_Bjorn_Final\c3d\bjorn.ASF
:FULLY-SPECIFIED
:DEGREES
1
root 2.44886 18.9448 15.8557 -366.971 -132.78 361.064
lowerback 10.3794 0.957951 1.07373
upperback 16.1177 -0.753795 -0.426109
thorax 11.663 -1.06752 -1.23405
lowerneck 0.435405 -0.919279 3.57191
upperneck 17.2591 -3.22389 5.65446
head 5.17921 -1.36915 0.996644
rclavicle 1.16687e-013 -6.81831e-014
rhumerus -204.727 -163.383 92.0394
rradius 44.0506
rwrist 8.15757
rhand -11.6645 12.0222
rfingers 7.12502
rthumb 14.3803 -17.4597
lclavicle 1.16687e-013 -6.81831e-014
lhumerus -384.63 -5.28027 -275.609
lradius 35.213
lwrist -11.994
lhand -21.7199 -6.90834
lfingers 7.12502
lthumb 4.67921 23.02
rfemur -6.79361 -10.4562 18.3313
rtibia 32.7652
rfoot -14.9481 14.0558
rtoes -2.42238
lfemur -14.7308 -5.66926 -13.1891
ltibia 50.1019
lfoot -9.83451 -1.41307
ltoes -12.9827
2
root 2.37398 18.9592 15.8499 -366.877 -133.628 361.072
lowerback 10.4073 0.960975 1.05762
upperback 16.1156 -0.772744 -0.398829
thorax 11.644 -1.08928 -1.19639
lowerneck 0.470775 -0.936867 3.61561
upperneck 17.0988 -3.20697 5.51567
head 5.12026 -1.36963 0.947843
rclavicle -3.77691e-015 2.14687e-014
rhumerus -204.786 -163.657 91.9648
rradius 44.2455
rwrist 8.09804
rhand -11.7467 11.8665
rfingers 7.12502
rthumb 14.3011 -17.621
lclavicle -3.77691e-015 2.14687e-014
lhumerus -384.514 -5.21529 -275.736
lradius 35.3279
lwrist -12.0258
lhand -21.6569 -6.80134
lfingers 7.12502
lthumb 4.74011 23.1256
rfemur -6.55497 -10.1468 18.2388
rtibia 32.3497
rfoot -14.703 14.5475
rtoes -2.53173
lfemur -14.9498 -6.68555 -12.8418
ltibia 48.5823
lfoot -10.3958 -0.868036
ltoes -11.8797
3
root 2.29854 18.9748 15.8448 -366.736 -134.504 361.071
lowerback 10.3784 0.971749 1.02067
upperback 16.1343 -0.785937 -0.373363
thorax 11.6838 -1.11105 -1.15124
lowerneck 0.447232 -0.945893 3.67688
upperneck 16.9345 -3.17919 5.3734
head 5.0698 -1.36177 0.895078
rclavicle -5.50634e-014 1.90833e-014
rhumerus -204.729 -163.925 91.8805
rradius 44.3445
rwrist 8.05052
rhand -11.7884 11.7592
rfingers 7.12502
rthumb 14.2609 -17.7311
lclavicle -5.50634e-014 1.90833e-014
lhumerus -384.368 -5.14295 -275.871
lradius 35.4606
lwrist -12.0399
lhand -21.5967 -6.70518
lfingers 7.12502
lthumb 4.79821 23.2205
rfemur -6.34973 -9.86814 18.1344
rtibia 31.9009
rfoot -14.3993 15.0845
rtoes -2.58373
lfemur -15.179 -7.58143 -12.4908
ltibia 47.0441
lfoot -10.9188 -0.312232
ltoes -13.3729
4
root 2.22355 18.9901 15.84 -366.581 -135.366 361.024
lowerback 10.3979 0.980739 0.927342
upperback 16.1333 -0.799597 -0.351683
thorax 11.6706 -1.13897 -1.07707
lowerneck 0.511427 -0.932692 3.67435
upperneck 16.7711 -3.13571 5.33157
head 5.00691 -1.34844 0.885524
rclavicle -7.11649e-014 2.18663e-014
rhumerus -204.765 -164.192 91.8469
rradius 44.4764
rwrist 8.02216
rhand -11.7853 11.6318
rfingers 7.12502
rthumb 14.2639 -17.8583
lclavicle -7.11649e-014 2.18663e-014
lhumerus -384.265 -5.00649 -276
lradius 35.5473
lwrist -12.138
lhand -21.5316 -6.66988
lfingers 7.12502
lthumb 4.8611 23.2544
rfemur -6.13281 -9.60697 17.9816
rtibia 31.4446
rfoot -14.091 15.6507
rtoes -2.60868
lfemur -15.374 -8.44281 -12.1546
ltibia 45.4522
lfoot -11.2707 0.238738
ltoes -16.4345
5
root 2.14736 19.0068 15.8344 -366.465 -136.251 361.028
lowerback 10.4061 0.999486 0.862314
upperback 16.1414 -0.802771 -0.316724
thorax 11.6759 -1.16014 -1.00491
lowerneck 0.568977 -0.923142 3.64477
upperneck 16.6399 -3.10997 5.33959
head 4.95644 -1.34255 0.894899
rclavicle 2.48481e-014 -1.19271e-015
rhumerus -204.776 -164.411 91.8372
rradius 44.5442
rwrist 8.0079
rhand -11.818 11.5839
rfingers 7.12502
rthumb 14.2323 -17.9084
lclavicle 2.48481e-014 -1.19271e-015
lhumerus -384.167 -4.92401 -276.13
lradius 35.6588
lwrist -12.1932
lhand -21.3786 -6.62112
lfingers 7.12502
lthumb 5.00881 23.2997
rfemur -5.92073 -9.26558 17.8798
rtibia 30.9934
rfoot -13.7768 16.1526
rtoes -2.63672
lfemur -15.5371 -9.32143 -11.7432
ltibia 43.794
lfoot -11.4831 0.728668
ltoes -19.5718
6
root 2.07168 19.0219 15.8299 -366.304 -137.101 360.985
lowerback 10.3827 1.0112 0.774709
upperback 16.1796 -0.819909 -0.315209
thorax 11.7359 -1.18992 -0.958661
lowerneck 0.551083 -0.909643 3.64619
upperneck 16.5287 -3.08763 5.36378
head 4.92509 -1.33324 0.903175
rclavicle 7.59357e-014 -4.7112e-014
rhumerus -204.73 -164.565 91.7903
rradius 44.5916
rwrist 8.03433
rhand -11.7809 11.5853
rfingers 7.12502
rthumb 14.2682 -17.9045
lclavicle 7.59357e-014 -4.7112e-014
lhumerus -383.974 -4.82223 -276.307
lradius 35.6953
lwrist -12.3527
lhand -21.2735 -6.57262
lfingers 7.12502
lthumb 5.11031 23.3458
rfemur -5.74928 -8.95623 17.7272
rtibia 30.5835
rfoot -13.4366 16.6898
rtoes -2.51839
lfemur -15.695 -10.2993 -11.335
ltibia 42.0541
lfoot -11.5394 1.03799
ltoes -22.062
7
root 1.99606 19.0334 15.8253 -366.14 -137.973 360.937
lowerback 10.3565 1.03083 0.659438
upperback 16.2109 -0.826102 -0.311203
thorax 11.7891 -1.21743 -0.894173
lowerneck 0.588547 -0.906879 3.62556
upperneck 16.3934 -3.07736 5.40478
head 4.87749 -1.33235 0.920422
rclavicle -3.00165e-014 1.70955e-014
rhumerus -204.69 -164.668 91.7785
rradius 44.5794
rwrist 8.1217
rhand -11.7511 11.6394
rfingers 7.12502
rthumb 14.2969 -17.8484
lclavicle -3.00165e-014 1.70955e-014
lhumerus -383.849 -4.83416 -276.48
lradius 35.7893
lwrist -12.3979
lhand -21.1326 -6.53568
lfingers 7.12502
lthumb 5.24634 23.3794
rfemur -5.62066 -8.73235 17.5533
rtibia 30.2268
rfoot -13.0969 17.3026
rtoes -2.43779
lfemur -15.7943 -11.2715 -10.8941
ltibia 40.2358
lfoot -11.4685 1.13349
ltoes -24.1629
8
root 1.92005 19.0417 15.8214 -366.011 -138.849 360.922
lowerback 10.3551 1.05874 0.564839
upperback 16.241 -0.821726 -0.302325
thorax 11.8269 -1.23831 -0.835401
lowerneck 0.641342 -0.910706 3.62389
upperneck 16.2472 -3.07354 5.43676
head 4.82385 -1.33458 0.931677
rclavicle -5.56597e-015 -6.36111e-015
rhumerus -204.675 -164.743 91.7814
rradius 44.592
rwrist 8.12493
rhand -11.7112 11.7184
rfingers 7.12502
rthumb 14.3353 -17.7667
lclavicle -5.56597e-015 -6.36111e-015
lhumerus -383.684 -4.8979 -276.647
lradius 35.816
lwrist -12.424
lhand -20.9804 -6.4764
lfingers 7.12502
lthumb 5.39326 23.435
rfemur -5.52797 -8.49462 17.4016
rtibia 29.9511
rfoot -12.7913 17.9138
rtoes -2.41807
lfemur -15.8294 -12.3208 -10.3989
ltibia 38.3577
lfoot -11.2007 0.901018
ltoes -25.3022
9
root 1.84123 19.0483 15.817 -365.807 -139.762 360.829
lowerback 10.2983 1.10056 0.396523
upperback 16.2834 -0.802314 -0.298374
thorax 11.9119 -1.26044 -0.742875
lowerneck 0.657056 -0.919929 3.54301
upperneck 16.122 -3.08016 5.49525
head 4.78389 -1.3432 0.96335
rclavicle -6.36111e-015 2.127e-014
rhumerus -204.616 -164.794 91.8359
rradius 44.5219
rwrist 8.22906
rhand -11.6596 11.835
rfingers 7.12502
rthumb 14.385 -17.6465
lclavicle -6.36111e-015 2.127e-014
lhumerus -383.502 -4.99776 -276.801
lradius 35.8298
lwrist -12.3972
lhand -20.8489 -6.46068
lfingers 7.12502
lthumb 5.52027 23.4474
rfemur -5.51227 -8.21609 17.1746
rtibia 29.768
rfoot -12.533 18.5704
rtoes -2.31256
lfemur -15.804 -13.3978 -9.94612
ltibia 36.4313
lfoot -10.8277 0.318357
ltoes -25.1642
10
root 1.75973 19.0495 15.8127 -365.662 -140.723 360.788
lowerback 10.2486 1.15586 0.299093
upperback 16.3369 -0.764507 -0.322325
thorax 12.0069 -1.26459 -0.720649
lowerneck 0.69244 -0.934684 3.55598
upperneck 15.976 -3.09463 5.54075
head 4.73369 -1.35254 0.975454
rclavicle -3.37934e-015 -2.56432e-014
rhumerus -204.57 -164.799 91.8336
rradius 44.4649
rwrist 8.2934
rhand -11.6511 11.9707
rfingers 7.12502
rthumb 14.3932 -17.5103
lclavicle -3.37934e-015 -2.56432e-014
lhumerus -383.322 -5.18199 -276.998
lradius 35.8277
lwrist -12.3587
lhand -20.7494 -6.43139
lfingers 7.12502
lthumb 5.61631 23.4742
rfemur -5.51848 -7.89833 16.979
rtibia 29.6752
rfoot -12.2868 19.2425
rtoes -2.14598
lfemur -15.6653 -14.5324 -9.45124
ltibia 34.48
lfoot -10.4377 -0.38271
ltoes -23.7214
11
root 1.67893 19.0473 15.8082 -365.499 -141.675 360.703
lowerback 10.1917 1.2241 0.136402
upperback 16.4125 -0.716851 -0.346716
thorax 12.1335 -1.27397 -0.664078
lowerneck 0.679502 -0.963681 3.59227
upperneck 15.8386 -3.1291 5.57369
head 4.6942 -1.36919 0.978578
rclavicle 2.16675e-014 -1.21259e-014
rhumerus -204.454 -164.729 91.8472
rradius 44.3597
rwrist 8.36099
rhand -11.6057 12.1075
rfingers 7.12502
rthumb 14.4369 -17.3704
lclavicle 2.16675e-014 -1.21259e-014
lhumerus -383.097 -5.38799 -277.174
lradius 35.8006
lwrist -12.3148
lhand -20.7028 -6.32462
lfingers 7.12502
lthumb 5.66134 23.5798
rfemur -5.57426 -7.51764 16.7505
rtibia 29.6768
rfoot -12.0969 19.8547
rtoes -2.05328
lfemur -15.4591 -15.6295 -8.98839
ltibia 32.515
lfoot -9.90956 -1.13237
ltoes -21.8519
